<svg width="512" height="512" xmlns="http://www.w3.org/2000/svg" xml:space="preserve" enable-background="new 0 0 512 512" version="1.1">

 <g>
  <title>Layer 1</title>
  <g id="svg_1">
   <path fill="#ffffff" id="svg_2" d="m306.63,112.893l109.68,0c1.623,0 3.199,0.178 4.807,0.244l0,-54.42c0,-18.632 -15.101,-33.732 -33.733,-33.732l-90.272,0c5.904,9.924 9.519,21.37 9.519,33.732l0,54.176l-0.001,0z"/>
   <path fill="#ffffff" id="svg_3" d="m273.92,112.893l0,-54.177c0,-18.632 -15.101,-33.732 -33.732,-33.732l-115.58,0c-18.631,0 -33.732,15.101 -33.732,33.732l0,54.42c1.61,-0.065 3.19,-0.244 4.815,-0.244l178.229,0l0,0.001z"/>
   <path fill="#ffffff" id="svg_4" d="m82.506,446.128c0,22.584 18.304,40.888 40.888,40.888c22.584,0 40.888,-18.303 40.888,-40.888l0,-6.133l-81.776,0l0,6.133z"/>
   <path fill="#ffffff" id="svg_5" d="m347.718,446.128c0,22.584 18.305,40.888 40.888,40.888c22.584,0 40.888,-18.303 40.888,-40.888l0,-6.133l-81.776,0l0,6.133z"/>
   <path fill="#ffffff" id="svg_6" d="m416.31,145.603l-320.619,0c-46.957,0 -85.018,38.06 -85.018,85.017l0,142.933c0,18.631 15.101,33.732 33.732,33.732l423.188,0c18.632,0 33.732,-15.101 33.732,-33.732l0,-142.933c0.002,-46.957 -38.058,-85.017 -85.015,-85.017zm-69.853,187.389l0,-115.14c0,-7.155 5.804,-12.961 12.96,-12.961l19.75,0l0,30.666l-2.069,0c-4.249,0 -7.698,3.449 -7.698,7.698l0,20.38c0,4.249 3.449,7.698 7.698,7.698l2.069,0l0,74.62l-19.75,0c-7.156,0 -12.96,-5.806 -12.96,-12.961zm98.131,0c0,7.155 -5.806,12.961 -12.961,12.961l-19.749,0l0,-74.62l2.059,0c4.249,0 7.698,-3.449 7.698,-7.698l0,-20.38c0,-4.249 -3.449,-7.698 -7.698,-7.698l-2.059,0l0,-30.667l19.749,0c7.155,0 12.961,5.806 12.961,12.961l0,115.141z"/>
  </g>
 </g>
</svg>