<svg width="512" height="512" xmlns="http://www.w3.org/2000/svg" xml:space="preserve" version="1.1">

 <g>
  <title>Layer 1</title>
  <g id="svg_22">
   <rect fill="#ffffff" transform="rotate(-36.2899, 263, 253)" id="svg_3" height="55.56648" width="505.61492" y="225.21676" x="10.19254"/>
   <path fill="#ffffff" id="svg_4" d="m160.20192,208.31936l62.90479,0l0,-185.67521l-49.5873,0c-0.38539,7.65457 -2.44083,14.08062 -6.20912,19.35377c-3.72547,5.23535 -8.50007,9.45008 -14.3452,12.53081c-5.80231,3.09963 -12.37541,5.32985 -19.61225,6.67176c-7.25825,1.32301 -14.70919,1.92782 -22.35283,1.73882l0,38.42403l49.24473,0l-0.04282,106.95603l0,0z"/>
   <path fill="#ffffff" id="svg_5" d="m432.57629,436.97787l-95.19221,0l0,-0.2646c9.87036,-5.34875 20.25457,-10.50849 31.08841,-15.46033c10.91948,-4.98964 20.89689,-10.56519 29.93223,-16.68884c9.07816,-6.12365 16.5291,-13.28682 22.37424,-21.47059c5.80231,-8.18377 8.757,-18.23866 8.757,-30.14576c0,-9.79028 -2.07684,-18.37096 -6.18771,-25.74202c-4.11086,-7.38996 -9.99882,-13.47582 -17.49258,-18.29536c-7.57941,-4.78174 -16.63615,-8.39167 -27.21307,-10.79199c-10.5555,-2.40032 -22.22436,-3.60993 -34.92094,-3.60993c-14.08828,0 -26.84908,1.77662 -38.21819,5.34875c-11.36911,3.55323 -20.96113,8.75078 -28.86169,15.59264c-7.83634,6.86076 -13.72429,15.25243 -17.53541,25.21282c-3.81111,9.94149 -5.30987,21.31938 -4.53908,34.1337l56.82414,0c-0.44963,-11.3779 1.75568,-20.58228 6.50887,-27.61314c4.75319,-7.01196 13.1462,-10.52739 25.24328,-10.52739c7.04414,0 13.03915,1.64431 17.98503,4.91404c4.90306,3.28863 7.40812,9.22328 7.40812,17.74725c0,3.38313 -0.96348,6.40716 -2.84763,9.05318c-1.96979,2.66492 -4.34638,5.08414 -7.27966,7.20096c-2.93327,2.13572 -6.01642,4.08244 -9.37791,5.89685c-3.31867,1.75772 -6.31617,3.36423 -8.92828,4.78174c-6.63733,3.55323 -13.51018,7.16316 -20.55432,10.81089c-7.04414,3.62883 -13.83135,7.46556 -20.38304,11.4535c-6.59451,3.98793 -12.71799,8.31607 -18.41325,12.94661c-5.75949,4.63054 -10.85525,9.60128 -15.30869,14.95003c-5.1814,6.23705 -9.20662,13.17341 -11.90438,20.82798c-2.74058,7.63567 -3.7897,16.00844 -3.16879,25.06162l182.2055,0l0,-45.32259l0,0z"/>
   <g id="svg_7"/>
   <g id="svg_8"/>
   <g id="svg_9"/>
   <g id="svg_10"/>
   <g id="svg_11"/>
   <g id="svg_12"/>
   <g id="svg_13"/>
   <g id="svg_14"/>
   <g id="svg_15"/>
   <g id="svg_16"/>
   <g id="svg_17"/>
   <g id="svg_18"/>
   <g id="svg_19"/>
   <g id="svg_20"/>
   <g id="svg_21"/>
  </g>
 </g>
</svg>