<svg width="512" height="512" xmlns="http://www.w3.org/2000/svg">

 <g>
  <title>Layer 1</title>
  <path fill="#ffffff" id="svg_3" d="m343.49998,180.82953l-174.99999,0a87.59957,97.50139 0 0 0 -87.5,97.39056l0,19.47811a87.59955,97.50137 0 0 0 87.5,97.39056l174.99999,0a87.59955,97.50137 0 0 0 87.5,-97.39056l0,-19.47811a87.59957,97.50139 0 0 0 -87.5,-97.39056zm52.5,116.86867a52.56015,58.50129 0 0 1 -52.5,58.43434l-174.99999,0a52.56015,58.50129 0 0 1 -52.5,-58.43434l0,-19.47811a52.56015,58.50129 0 0 1 52.5,-58.43434l174.99999,0a52.56015,58.50129 0 0 1 52.5,58.43434l0,19.47811zm-35,-9.73906a26.25,29.21717 0 1 1 -26.25,-29.21717a26.27938,29.24987 0 0 1 26.25,29.21717zm-157.49999,0a26.25,29.21717 0 1 1 -26.25,-29.21717a26.27938,29.24987 0 0 1 26.25,29.21717zm227.49999,-262.95451a70.12565,78.0523 0 0 0 -67.78579,58.43434l-214.42841,0a70.00483,77.91783 0 0 0 -137.78578,19.47811l0,194.78112a157.6777,175.50081 0 0 0 157.49999,175.30301l174.99999,0a157.6777,175.50081 0 0 0 157.49999,-175.30301l0,-194.78112a70.08021,78.00173 0 0 0 -70,-77.91245zm35,272.69357a122.63829,136.50071 0 0 1 -122.49999,136.34678l-174.99999,0a122.63829,136.50071 0 0 1 -122.49999,-136.34678l0,-194.78112a35,38.95622 0 0 1 70,0a17.50085,19.47906 0 0 0 17.5,19.47811l244.99999,0a17.50085,19.47906 0 0 0 17.5,-19.47811a35,38.95622 0 0 1 70,0l0,194.78112z"/>
 </g>
</svg>