<svg width="490.2" height="490.2" xmlns="http://www.w3.org/2000/svg" xml:space="preserve" version="1.1">

 <g>
  <title>Layer 1</title>
  <path fill="#ffffff" id="svg_2" d="m390.1,257.417c-42.1,0 -78.2,26.2 -92.9,63.2l-29.6,-47.2l130.8,-208.5c6.3,-10.6 3.2,-23.2 -6.3,-28.5c-9.5,-6.3 -22.2,-3.2 -28.5,6.3l-118.6,188.8l-118.6,-188.8c-6.3,-9.5 -19,-12.7 -28.5,-6.3c-9.5,5.3 -12.7,17.9 -6.3,28.5l130.8,208.5l-29.6,47.2c-14.6,-37 -50.8,-63.2 -92.9,-63.2c-55.1,0 -99.9,44.8 -99.9,99.9s44.8,99.8 99.9,99.8c38,0 71.1,-21.3 88,-52.6l57.2,-90.7l57.2,90.7c16.9,31.3 50,52.6 88,52.6c55.1,0 99.9,-44.8 99.9,-99.9s-45,-99.8 -100.1,-99.8zm-290.2,158.1c-32.1,0 -58.3,-26.1 -58.3,-58.3c0,-32.1 26.1,-58.3 58.3,-58.3s58.3,26.1 58.3,58.3c-0.1,32.2 -26.2,58.3 -58.3,58.3zm290.2,0c-32.1,0 -58.3,-26.1 -58.3,-58.3c0,-32.1 26.1,-58.3 58.3,-58.3c32.2,0 58.3,26.1 58.3,58.3s-26.1,58.3 -58.3,58.3z"/>
  <g id="svg_3"/>
  <g id="svg_4"/>
  <g id="svg_5"/>
  <g id="svg_6"/>
  <g id="svg_7"/>
  <g id="svg_8"/>
  <g id="svg_9"/>
  <g id="svg_10"/>
  <g id="svg_11"/>
  <g id="svg_12"/>
  <g id="svg_13"/>
  <g id="svg_14"/>
  <g id="svg_15"/>
  <g id="svg_16"/>
  <g id="svg_17"/>
 </g>
</svg>